<?xml version="1.0" encoding="iso-8859-1"?>
<!-- Generator: Adobe Illustrator 18.1.1, SVG Export Plug-In . SVG Version: 6.00 Build 0)  -->
<svg version="1.1" id="Capa_1" xmlns="http://www.w3.org/2000/svg" xmlns:xlink="http://www.w3.org/1999/xlink" x="0px" y="0px"
	 viewBox="0 0 25.625 25.625" style="enable-background:new 0 0 25.625 25.625;" xml:space="preserve">
<g>
	<g id="c7_test_tube">
		<path d="M18.842,0H6.781C6.308,0,5.922,0.386,5.922,0.862c0,0.474,0.386,0.861,0.859,0.861h0.596L7.379,20.19
			c-0.002,3,2.433,5.435,5.434,5.435c1.501,0,2.86-0.608,3.845-1.595c0.981-0.98,1.589-2.34,1.591-3.84L18.247,1.723h0.596
			c0.476,0,0.86-0.387,0.86-0.861C19.702,0.386,19.318,0,18.842,0z M13.865,10.726c-0.53,0.533-1.393,0.533-1.921,0.003
			c-0.533-0.533-0.532-1.395,0-1.922c0.531-0.532,1.391-0.532,1.923,0C14.399,9.334,14.399,10.194,13.865,10.726z M11.626,5.283
			c0.352-0.354,0.925-0.352,1.279,0c0.354,0.354,0.354,0.927,0,1.28c-0.354,0.354-0.928,0.354-1.281,0
			C11.272,6.211,11.272,5.636,11.626,5.283z M14.081,6.669c0.261-0.262,0.685-0.259,0.943,0c0.261,0.262,0.261,0.685,0.002,0.943
			c-0.261,0.263-0.685,0.263-0.946,0C13.819,7.354,13.819,6.931,14.081,6.669z M16.436,13.569L9.19,11.814V1.723h7.246V13.569z"/>
	</g>
	<g id="Capa_1_262_">
	</g>
</g>
<g>
</g>
<g>
</g>
<g>
</g>
<g>
</g>
<g>
</g>
<g>
</g>
<g>
</g>
<g>
</g>
<g>
</g>
<g>
</g>
<g>
</g>
<g>
</g>
<g>
</g>
<g>
</g>
<g>
</g>
</svg>
